<svg id="icon" height="512" viewBox="0 0 128 128" width="512" xmlns="http://www.w3.org/2000/svg"><path d="m34.358 48.866h-.072a4.195 4.195 0 0 1 -.093-8.388 4.875 4.875 0 0 1 -.785-2.686 5.074 5.074 0 0 1 5.072-5.072 3.547 3.547 0 0 1 .579.041 4.136 4.136 0 0 1 -.165-1.136 3.97 3.97 0 0 1 7.582-1.653 6.5 6.5 0 0 1 5.2-2.572 6.342 6.342 0 0 1 1.89.279v-.031a4.649 4.649 0 0 1 9.3 0 1.542 1.542 0 0 1 -.01.217 5.7 5.7 0 0 1 5.991.93 6.006 6.006 0 0 1 11.311 1.281 5.224 5.224 0 0 1 9.287 4.772 4.394 4.394 0 0 1 6.115 4.039 4.426 4.426 0 0 1 -.692 2.386 4.345 4.345 0 0 1 -1.291 8.491" fill="#fed19a"/><path d="m95.811 48.701-10.33 56.299h-42.869l-10.33-56.299z" fill="#ef5261"/><path d="m60.689 48.701h6.715v56.299h-6.715z" fill="#eeefee"/><path d="m86.101 48.701-6.642 56.299h-6.715l6.643-56.299z" fill="#eeefee"/><path d="m55.338 105h-6.714l-6.632-56.299h6.714z" fill="#eeefee"/><g fill="#f4bb87"><path d="m40.222 39.7c.226.5.715 1 1.238.841.636-.191.67-1.019.6-1.555.8.8 1.055-1.187.559-1.733a1.888 1.888 0 0 0 -2.061-.2 3.572 3.572 0 0 0 -2.158 1.835c-.61 2.012 1.878.935 1.822.812z"/><path d="m57.948 43.409c.188.413.594.83 1.029.7.528-.159.557-.847.5-1.293.665.664.877-.987.465-1.44a1.57 1.57 0 0 0 -1.713-.17 2.969 2.969 0 0 0 -1.8 1.531c-.502 1.668 1.566.776 1.519.672z"/><path d="m47.162 45.014c-.174.464-.182 1.1.255 1.336.531.286 1.085-.224 1.386-.612 0 1.027 1.44-.085 1.473-.754.034-.71-.618-1.185-1.193-1.456a3.246 3.246 0 0 0 -2.572-.2c-1.682.895.607 1.803.651 1.686z"/><path d="m54.1 34.813c.393-.47.663-1.21.249-1.663-.5-.55-1.357-.183-1.868.147.419-1.2-1.715-.49-2.027.277a2.121 2.121 0 0 0 .8 2.186 4.013 4.013 0 0 0 2.917 1.292c2.323-.361.029-2.357-.071-2.239z"/><path d="m75.037 34.534c.169.372.536.748.928.63.476-.143.5-.763.452-1.165.6.6.79-.89.419-1.3a1.415 1.415 0 0 0 -1.544-.154 2.677 2.677 0 0 0 -1.619 1.381c-.458 1.506 1.406.701 1.364.608z"/><path d="m83.795 39.82c.254.558.8 1.122 1.391.945.714-.215.753-1.144.677-1.747.9.9 1.185-1.334.628-1.947a2.121 2.121 0 0 0 -2.315-.23 4.013 4.013 0 0 0 -2.428 2.07c-.684 2.256 2.11 1.049 2.047.909z"/><path d="m91.317 44.339c.41-.186.824-.59.694-1.021-.158-.524-.84-.553-1.283-.5.659-.66-.98-.87-1.43-.461a1.558 1.558 0 0 0 -.169 1.7 2.947 2.947 0 0 0 1.52 1.783c1.657.505.771-1.548.668-1.501z"/><path d="m75.518 45.355c.226.5.715 1 1.238.841.636-.191.67-1.019.6-1.555.8.8 1.055-1.187.559-1.733a1.888 1.888 0 0 0 -2.061-.2 3.572 3.572 0 0 0 -2.154 1.837c-.613 2.009 1.874.935 1.818.81z"/><path d="m35.732 46.152c.2.447.643.9 1.113.757.571-.172.6-.916.542-1.4.719.718.948-1.068.5-1.558a1.7 1.7 0 0 0 -1.853-.184 3.212 3.212 0 0 0 -1.943 1.657c-.545 1.807 1.692.841 1.641.728z"/><path d="m69.838 38.217c.045-.612-.167-1.37-.767-1.5-.729-.154-1.209.643-1.431 1.209-.358-1.218-1.679.6-1.484 1.407.207.854 1.146 1.191 1.922 1.312a4.013 4.013 0 0 0 3.122-.645c1.68-1.656-1.35-1.937-1.362-1.783z"/><path d="m61.773 32.347c.191.42.6.844 1.046.711.537-.161.566-.86.509-1.314.676.675.891-1 .472-1.464a1.6 1.6 0 0 0 -1.741-.173 3.017 3.017 0 0 0 -1.826 1.556c-.513 1.697 1.588.79 1.54.684z"/></g></svg>